{"asset":{"version":"2.0","generator":"mrcluckers procedural rig"},"scene":0,"scenes":[{"name":"Scene","nodes":[0]}],"nodes":[{"name":"MrCluckers","children":[1],"scale":[0.9074410163339383,0.9074410163339383,0.9074410163339383],"translation":[0.0,0.06261343012704172,0.0]},{"name":"root","translation":[0.0,0.0,0.0],"children":[2]},{"name":"hips","translation":[0.0,0.415,0.0],"children":[3,7,8,11,12,13],"mesh":0},{"name":"neck","translation":[0.0,0.262,0.006],"children":[4],"mesh":1},{"name":"head","translation":[0.0,0.07,0.0],"children":[5,6],"mesh":2},{"name":"comb","translation":[0.0,0.14,-0.004],"mesh":3},{"name":"wattle","translation":[0.0,-0.112,0.116],"mesh":4},{"name":"shoulder_l","translation":[0.178,0.118,-0.014],"children":[9],"mesh":5},{"name":"shoulder_r","translation":[-0.178,0.118,-0.014],"children":[10],"mesh":6},{"name":"wingtip_l","translation":[0.108,0.0,0.0],"mesh":7},{"name":"wingtip_r","translation":[-0.108,0.0,0.0],"mesh":8},{"name":"tail","translation":[0.0,0.055,-0.215],"mesh":13},{"name":"hip_l","translation":[0.1,-0.15,0.0],"children":[14],"mesh":9},{"name":"hip_r","translation":[-0.1,-0.15,0.0],"children":[15],"mesh":10},{"name":"ankle_l","translation":[0.0,-0.208,0.01],"mesh":11},{"name":"ankle_r","translation":[0.0,-0.208,0.01],"mesh":12}],"meshes":[{"name":"hips_mesh","primitives":[{"attributes":{"POSITION":0,"NORMAL":1},"indices":2,"material":0,"mode":4}]},{"name":"neck_mesh","primitives":[{"attributes":{"POSITION":3,"NORMAL":4},"indices":5,"material":0,"mode":4}]},{"name":"head_mesh","primitives":[{"attributes":{"POSITION":6,"NORMAL":7},"indices":8,"material":0,"mode":4},{"attributes":{"POSITION":9,"NORMAL":10},"indices":11,"material":4,"mode":4},{"attributes":{"POSITION":12,"NORMAL":13},"indices":14,"material":6,"mode":4},{"attributes":{"POSITION":15,"NORMAL":16},"indices":17,"material":8,"mode":4},{"attributes":{"POSITION":18,"NORMAL":19},"indices":20,"material":7,"mode":4},{"attributes":{"POSITION":21,"NORMAL":22},"indices":23,"material":1,"mode":4}]},{"name":"comb_mesh","primitives":[{"attributes":{"POSITION":24,"NORMAL":25},"indices":26,"material":2,"mode":4}]},{"name":"wattle_mesh","primitives":[{"attributes":{"POSITION":27,"NORMAL":28},"indices":29,"material":2,"mode":4}]},{"name":"shoulder_l_mesh","primitives":[{"attributes":{"POSITION":30,"NORMAL":31},"indices":32,"material":3,"mode":4},{"attributes":{"POSITION":33,"NORMAL":34},"indices":35,"material":1,"mode":4}]},{"name":"shoulder_r_mesh","primitives":[{"attributes":{"POSITION":36,"NORMAL":37},"indices":38,"material":3,"mode":4},{"attributes":{"POSITION":39,"NORMAL":40},"indices":41,"material":1,"mode":4}]},{"name":"wingtip_l_mesh","primitives":[{"attributes":{"POSITION":42,"NORMAL":43},"indices":44,"material":3,"mode":4},{"attributes":{"POSITION":45,"NORMAL":46},"indices":47,"material":1,"mode":4}]},{"name":"wingtip_r_mesh","primitives":[{"attributes":{"POSITION":48,"NORMAL":49},"indices":50,"material":3,"mode":4},{"attributes":{"POSITION":51,"NORMAL":52},"indices":53,"material":1,"mode":4}]},{"name":"hip_l_mesh","primitives":[{"attributes":{"POSITION":54,"NORMAL":55},"indices":56,"material":3,"mode":4}]},{"name":"hip_r_mesh","primitives":[{"attributes":{"POSITION":57,"NORMAL":58},"indices":59,"material":3,"mode":4}]},{"name":"ankle_l_mesh","primitives":[{"attributes":{"POSITION":60,"NORMAL":61},"indices":62,"material":5,"mode":4}]},{"name":"ankle_r_mesh","primitives":[{"attributes":{"POSITION":63,"NORMAL":64},"indices":65,"material":5,"mode":4}]},{"name":"tail_mesh","primitives":[{"attributes":{"POSITION":66,"NORMAL":67},"indices":68,"material":0,"mode":4}]}],"materials":[{"name":"plush_grey","doubleSided":false,"pbrMetallicRoughness":{"baseColorFactor":[0.26635560480286247,0.2704977910130658,0.25415209433082675,1.0],"metallicFactor":0.0,"roughnessFactor":0.95}},{"name":"plush_shade","doubleSided":false,"pbrMetallicRoughness":{"baseColorFactor":[0.1946178304415758,0.19806931955994886,0.18116424424986022,1.0],"metallicFactor":0.0,"roughnessFactor":0.95}},{"name":"comb_red","doubleSided":false,"pbrMetallicRoughness":{"baseColorFactor":[0.6239603916750761,0.014443843596092545,0.0202885630566524,1.0],"metallicFactor":0.0,"roughnessFactor":0.8}},{"name":"cord_red","doubleSided":false,"pbrMetallicRoughness":{"baseColorFactor":[0.3762621229909065,0.014443843596092545,0.024157632448504756,1.0],"metallicFactor":0.0,"roughnessFactor":0.85}},{"name":"beak_yellow","doubleSided":false,"pbrMetallicRoughness":{"baseColorFactor":[0.7454042095403874,0.4620769996544071,0.02518685962736163,1.0],"metallicFactor":0.0,"roughnessFactor":0.7}},{"name":"foot_black","doubleSided":false,"pbrMetallicRoughness":{"baseColorFactor":[0.011612245179743885,0.012286488356915872,0.01599629336550963,1.0],"metallicFactor":0.0,"roughnessFactor":0.6}},{"name":"eye_white","doubleSided":false,"pbrMetallicRoughness":{"baseColorFactor":[0.8713671191987972,0.8631572134541023,0.8148465722161012,1.0],"metallicFactor":0.0,"roughnessFactor":0.45}},{"name":"eye_dark","doubleSided":false,"pbrMetallicRoughness":{"baseColorFactor":[0.006995410187265387,0.007499032043226175,0.010329823029626936,1.0],"metallicFactor":0.0,"roughnessFactor":0.35}},{"name":"eye_ring","doubleSided":false,"pbrMetallicRoughness":{"baseColorFactor":[0.1559264637078274,0.162029375639111,0.14126329114027164,1.0],"metallicFactor":0.0,"roughnessFactor":0.6}}],"accessors":[{"bufferView":0,"componentType":5126,"count":338,"type":"VEC3","min":[-0.2435260927099307,-0.1936988906404195,-0.22988511074513981],"max":[0.24642067213355912,0.3044176156188299,0.28341400492017743]},{"bufferView":1,"componentType":5126,"count":338,"type":"VEC3"},{"bufferView":2,"componentType":5125,"count":2016,"type":"SCALAR"},{"bufferView":3,"componentType":5126,"count":96,"type":"VEC3","min":[-0.12413917410650956,-0.055636745730925266,-0.12285040475989387],"max":[0.12772492115294642,0.0404693913634262,0.12777796499544564]},{"bufferView":4,"componentType":5126,"count":96,"type":"VEC3"},{"bufferView":5,"componentType":5125,"count":432,"type":"SCALAR"},{"bufferView":6,"componentType":5126,"count":534,"type":"VEC3","min":[-0.15104379283353625,-0.16327099571906373,-0.14999727349081124],"max":[0.16271668569051195,0.16615327667775462,0.15407463740426902]},{"bufferView":7,"componentType":5126,"count":534,"type":"VEC3"},{"bufferView":8,"componentType":5125,"count":3192,"type":"SCALAR"},{"bufferView":9,"componentType":5126,"count":122,"type":"VEC3","min":[-0.106,-0.07664941238177976,0.098],"max":[0.106,0.092,0.345]},{"bufferView":10,"componentType":5126,"count":122,"type":"VEC3"},{"bufferView":11,"componentType":5125,"count":720,"type":"SCALAR"},{"bufferView":12,"componentType":5126,"count":400,"type":"VEC3","min":[-0.12206905072583538,0.024086980784211058,0.07501781956202266],"max":[0.12206905072583538,0.14191301921578894,0.14898218043797734]},{"bufferView":13,"componentType":5126,"count":400,"type":"VEC3"},{"bufferView":14,"componentType":5125,"count":2376,"type":"SCALAR"},{"bufferView":15,"componentType":5126,"count":400,"type":"VEC3","min":[-0.12158284855690908,0.01431170538012505,0.06358272700238098],"max":[0.12158284855690908,0.14666004244417097,0.14025005504229537]},{"bufferView":16,"componentType":5126,"count":400,"type":"VEC3"},{"bufferView":17,"componentType":5125,"count":2376,"type":"SCALAR"},{"bufferView":18,"componentType":5126,"count":256,"type":"VEC3","min":[-0.10620700166816162,0.057204690206623804,0.1124465424780395],"max":[0.10620700166816163,0.11038105185840687,0.15098204551740124]},{"bufferView":19,"componentType":5126,"count":256,"type":"VEC3"},{"bufferView":20,"componentType":5125,"count":1512,"type":"SCALAR"},{"bufferView":21,"componentType":5126,"count":292,"type":"VEC3","min":[-0.12641235544169088,0.09990624306274554,0.07177779817779902],"max":[0.12641235544169088,0.15787508984249815,0.14004899640469337]},{"bufferView":22,"componentType":5126,"count":292,"type":"VEC3"},{"bufferView":23,"componentType":5125,"count":1728,"type":"SCALAR"},{"bufferView":24,"componentType":5126,"count":84,"type":"VEC3","min":[-0.018000000000000006,-0.022,-0.096],"max":[0.018000000000000006,0.146,0.086]},{"bufferView":25,"componentType":5126,"count":84,"type":"VEC3"},{"bufferView":26,"componentType":5125,"count":84,"type":"SCALAR"},{"bufferView":27,"componentType":5126,"count":84,"type":"VEC3","min":[-0.015000000000000001,-0.13302807369979758,-0.041422559167250954],"max":[0.015000000000000003,0.042575312789146356,0.04918112863380908]},{"bufferView":28,"componentType":5126,"count":84,"type":"VEC3"},{"bufferView":29,"componentType":5125,"count":84,"type":"SCALAR"},{"bufferView":30,"componentType":5126,"count":77,"type":"VEC3","min":[-0.027609508307850018,-0.017593760214553663,-0.136387938632382],"max":[0.13467643936797805,0.053973138210956687,0.1265159144280672]},{"bufferView":31,"componentType":5126,"count":77,"type":"VEC3"},{"bufferView":32,"componentType":5125,"count":360,"type":"SCALAR"},{"bufferView":33,"componentType":5126,"count":97,"type":"VEC3","min":[-0.027609508307850018,-0.06798100518993247,-0.136387938632382],"max":[0.1358308886117886,0.053723513926923025,0.1265159144280672]},{"bufferView":34,"componentType":5126,"count":97,"type":"VEC3"},{"bufferView":35,"componentType":5125,"count":480,"type":"SCALAR"},{"bufferView":36,"componentType":5126,"count":77,"type":"VEC3","min":[-0.13467643936797805,-0.017593760214553663,-0.136387938632382],"max":[0.027609508307850018,0.053973138210956687,0.1265159144280672]},{"bufferView":37,"componentType":5126,"count":77,"type":"VEC3"},{"bufferView":38,"componentType":5125,"count":360,"type":"SCALAR"},{"bufferView":39,"componentType":5126,"count":97,"type":"VEC3","min":[-0.1358308886117886,-0.06798100518993247,-0.136387938632382],"max":[0.027609508307850018,0.053723513926923025,0.1265159144280672]},{"bufferView":40,"componentType":5126,"count":97,"type":"VEC3"},{"bufferView":41,"componentType":5125,"count":480,"type":"SCALAR"},{"bufferView":42,"componentType":5126,"count":85,"type":"VEC3","min":[-0.0019151936240459216,-0.06903865483737738,-0.13702444506260986],"max":[0.18679409641363254,0.03786332030587615,0.09464384013941213]},{"bufferView":43,"componentType":5126,"count":85,"type":"VEC3"},{"bufferView":44,"componentType":5125,"count":405,"type":"SCALAR"},{"bufferView":45,"componentType":5126,"count":103,"type":"VEC3","min":[-0.0022912344669968054,-0.0809717933222964,-0.13702444506260986],"max":[0.18686186320937648,0.03786332030587615,0.09464384013941213]},{"bufferView":46,"componentType":5126,"count":103,"type":"VEC3"},{"bufferView":47,"componentType":5125,"count":495,"type":"SCALAR"},{"bufferView":48,"componentType":5126,"count":85,"type":"VEC3","min":[-0.18679409641363254,-0.06903865483737738,-0.13702444506260986],"max":[0.0019151936240459216,0.03786332030587615,0.09464384013941213]},{"bufferView":49,"componentType":5126,"count":85,"type":"VEC3"},{"bufferView":50,"componentType":5125,"count":405,"type":"SCALAR"},{"bufferView":51,"componentType":5126,"count":103,"type":"VEC3","min":[-0.18686186320937648,-0.0809717933222964,-0.13702444506260986],"max":[0.0022912344669968054,0.03786332030587615,0.09464384013941213]},{"bufferView":52,"componentType":5126,"count":103,"type":"VEC3"},{"bufferView":53,"componentType":5125,"count":495,"type":"SCALAR"},{"bufferView":54,"componentType":5126,"count":488,"type":"VEC3","min":[-0.07698341347111212,-0.20800000000000002,-0.07581386243969568],"max":[0.07698341347111212,0.045,0.07581386243969568]},{"bufferView":55,"componentType":5126,"count":488,"type":"VEC3"},{"bufferView":56,"componentType":5125,"count":2916,"type":"SCALAR"},{"bufferView":57,"componentType":5126,"count":488,"type":"VEC3","min":[-0.07698341347111212,-0.20800000000000002,-0.07581386243969568],"max":[0.07698341347111212,0.045,0.07581386243969568]},{"bufferView":58,"componentType":5126,"count":488,"type":"VEC3"},{"bufferView":59,"componentType":5125,"count":2916,"type":"SCALAR"},{"bufferView":60,"componentType":5126,"count":72,"type":"VEC3","min":[-0.103,-0.126,-0.082],"max":[0.103,0.014000000000000068,0.20800000000000002]},{"bufferView":61,"componentType":5126,"count":72,"type":"VEC3"},{"bufferView":62,"componentType":5125,"count":420,"type":"SCALAR"},{"bufferView":63,"componentType":5126,"count":72,"type":"VEC3","min":[-0.103,-0.126,-0.082],"max":[0.103,0.014000000000000068,0.20800000000000002]},{"bufferView":64,"componentType":5126,"count":72,"type":"VEC3"},{"bufferView":65,"componentType":5125,"count":420,"type":"SCALAR"},{"bufferView":66,"componentType":5126,"count":145,"type":"VEC3","min":[-0.09453825467649571,-0.12006357575947259,-0.18636642448699287],"max":[0.0959040953952326,0.1724428654027818,0.005370826276035706]},{"bufferView":67,"componentType":5126,"count":145,"type":"VEC3"},{"bufferView":68,"componentType":5125,"count":816,"type":"SCALAR"},{"bufferView":69,"componentType":5126,"count":17,"type":"SCALAR","min":[0.0],"max":[1.3333333333333333]},{"bufferView":70,"componentType":5126,"count":17,"type":"VEC4"},{"bufferView":71,"componentType":5126,"count":17,"type":"VEC4"},{"bufferView":72,"componentType":5126,"count":17,"type":"VEC4"},{"bufferView":73,"componentType":5126,"count":17,"type":"VEC4"},{"bufferView":74,"componentType":5126,"count":17,"type":"VEC4"},{"bufferView":75,"componentType":5126,"count":17,"type":"VEC4"},{"bufferView":76,"componentType":5126,"count":17,"type":"VEC4"},{"bufferView":77,"componentType":5126,"count":17,"type":"VEC4"},{"bufferView":78,"componentType":5126,"count":17,"type":"VEC4"},{"bufferView":79,"componentType":5126,"count":17,"type":"VEC4"},{"bufferView":80,"componentType":5126,"count":17,"type":"VEC4"},{"bufferView":81,"componentType":5126,"count":17,"type":"VEC4"},{"bufferView":82,"componentType":5126,"count":17,"type":"VEC4"},{"bufferView":83,"componentType":5126,"count":17,"type":"VEC4"},{"bufferView":84,"componentType":5126,"count":17,"type":"VEC3"},{"bufferView":85,"componentType":5126,"count":9,"type":"SCALAR","min":[0.0],"max":[0.6666666666666666]},{"bufferView":86,"componentType":5126,"count":9,"type":"VEC4"},{"bufferView":87,"componentType":5126,"count":9,"type":"VEC4"},{"bufferView":88,"componentType":5126,"count":9,"type":"VEC4"},{"bufferView":89,"componentType":5126,"count":9,"type":"VEC4"},{"bufferView":90,"componentType":5126,"count":9,"type":"VEC4"},{"bufferView":91,"componentType":5126,"count":9,"type":"VEC4"},{"bufferView":92,"componentType":5126,"count":9,"type":"VEC4"},{"bufferView":93,"componentType":5126,"count":9,"type":"VEC4"},{"bufferView":94,"componentType":5126,"count":9,"type":"VEC4"},{"bufferView":95,"componentType":5126,"count":9,"type":"VEC4"},{"bufferView":96,"componentType":5126,"count":9,"type":"VEC4"},{"bufferView":97,"componentType":5126,"count":9,"type":"VEC4"},{"bufferView":98,"componentType":5126,"count":9,"type":"VEC4"},{"bufferView":99,"componentType":5126,"count":9,"type":"VEC4"},{"bufferView":100,"componentType":5126,"count":9,"type":"VEC3"},{"bufferView":101,"componentType":5126,"count":9,"type":"SCALAR","min":[0.0],"max":[0.5]},{"bufferView":102,"componentType":5126,"count":9,"type":"VEC4"},{"bufferView":103,"componentType":5126,"count":9,"type":"VEC4"},{"bufferView":104,"componentType":5126,"count":9,"type":"VEC4"},{"bufferView":105,"componentType":5126,"count":9,"type":"VEC4"},{"bufferView":106,"componentType":5126,"count":9,"type":"VEC4"},{"bufferView":107,"componentType":5126,"count":9,"type":"VEC4"},{"bufferView":108,"componentType":5126,"count":9,"type":"VEC4"},{"bufferView":109,"componentType":5126,"count":9,"type":"VEC4"},{"bufferView":110,"componentType":5126,"count":9,"type":"VEC4"},{"bufferView":111,"componentType":5126,"count":9,"type":"VEC4"},{"bufferView":112,"componentType":5126,"count":9,"type":"VEC4"},{"bufferView":113,"componentType":5126,"count":9,"type":"VEC4"},{"bufferView":114,"componentType":5126,"count":9,"type":"VEC4"},{"bufferView":115,"componentType":5126,"count":9,"type":"VEC4"},{"bufferView":116,"componentType":5126,"count":9,"type":"VEC3"},{"bufferView":117,"componentType":5126,"count":4,"type":"SCALAR","min":[0.0],"max":[0.21428571428571427]},{"bufferView":118,"componentType":5126,"count":4,"type":"VEC4"},{"bufferView":119,"componentType":5126,"count":4,"type":"VEC4"},{"bufferView":120,"componentType":5126,"count":4,"type":"VEC4"},{"bufferView":121,"componentType":5126,"count":4,"type":"VEC4"},{"bufferView":122,"componentType":5126,"count":4,"type":"VEC4"},{"bufferView":123,"componentType":5126,"count":4,"type":"VEC4"},{"bufferView":124,"componentType":5126,"count":4,"type":"VEC4"},{"bufferView":125,"componentType":5126,"count":4,"type":"VEC4"},{"bufferView":126,"componentType":5126,"count":4,"type":"VEC4"},{"bufferView":127,"componentType":5126,"count":4,"type":"VEC4"},{"bufferView":128,"componentType":5126,"count":4,"type":"VEC4"},{"bufferView":129,"componentType":5126,"count":4,"type":"VEC4"},{"bufferView":130,"componentType":5126,"count":4,"type":"VEC4"},{"bufferView":131,"componentType":5126,"count":4,"type":"VEC4"},{"bufferView":132,"componentType":5126,"count":4,"type":"VEC3"},{"bufferView":133,"componentType":5126,"count":4,"type":"VEC3"},{"bufferView":134,"componentType":5126,"count":5,"type":"SCALAR","min":[0.0],"max":[0.4]},{"bufferView":135,"componentType":5126,"count":5,"type":"VEC4"},{"bufferView":136,"componentType":5126,"count":5,"type":"VEC4"},{"bufferView":137,"componentType":5126,"count":5,"type":"VEC4"},{"bufferView":138,"componentType":5126,"count":5,"type":"VEC4"},{"bufferView":139,"componentType":5126,"count":5,"type":"VEC4"},{"bufferView":140,"componentType":5126,"count":5,"type":"VEC4"},{"bufferView":141,"componentType":5126,"count":5,"type":"VEC4"},{"bufferView":142,"componentType":5126,"count":5,"type":"VEC4"},{"bufferView":143,"componentType":5126,"count":5,"type":"VEC4"},{"bufferView":144,"componentType":5126,"count":5,"type":"VEC4"},{"bufferView":145,"componentType":5126,"count":5,"type":"VEC4"},{"bufferView":146,"componentType":5126,"count":5,"type":"VEC4"},{"bufferView":147,"componentType":5126,"count":5,"type":"VEC4"},{"bufferView":148,"componentType":5126,"count":5,"type":"VEC4"},{"bufferView":149,"componentType":5126,"count":5,"type":"VEC3"},{"bufferView":150,"componentType":5126,"count":4,"type":"SCALAR","min":[0.0],"max":[0.21428571428571427]},{"bufferView":151,"componentType":5126,"count":4,"type":"VEC4"},{"bufferView":152,"componentType":5126,"count":4,"type":"VEC4"},{"bufferView":153,"componentType":5126,"count":4,"type":"VEC4"},{"bufferView":154,"componentType":5126,"count":4,"type":"VEC4"},{"bufferView":155,"componentType":5126,"count":4,"type":"VEC4"},{"bufferView":156,"componentType":5126,"count":4,"type":"VEC4"},{"bufferView":157,"componentType":5126,"count":4,"type":"VEC4"},{"bufferView":158,"componentType":5126,"count":4,"type":"VEC4"},{"bufferView":159,"componentType":5126,"count":4,"type":"VEC4"},{"bufferView":160,"componentType":5126,"count":4,"type":"VEC4"},{"bufferView":161,"componentType":5126,"count":4,"type":"VEC4"},{"bufferView":162,"componentType":5126,"count":4,"type":"VEC4"},{"bufferView":163,"componentType":5126,"count":4,"type":"VEC4"},{"bufferView":164,"componentType":5126,"count":4,"type":"VEC4"},{"bufferView":165,"componentType":5126,"count":4,"type":"VEC3"},{"bufferView":166,"componentType":5126,"count":4,"type":"VEC3"},{"bufferView":167,"componentType":5126,"count":2,"type":"SCALAR","min":[0.0],"max":[0.07142857142857142]},{"bufferView":168,"componentType":5126,"count":2,"type":"VEC4"},{"bufferView":169,"componentType":5126,"count":2,"type":"VEC4"},{"bufferView":170,"componentType":5126,"count":2,"type":"VEC4"},{"bufferView":171,"componentType":5126,"count":2,"type":"VEC4"},{"bufferView":172,"componentType":5126,"count":2,"type":"VEC4"},{"bufferView":173,"componentType":5126,"count":2,"type":"VEC4"},{"bufferView":174,"componentType":5126,"count":2,"type":"VEC4"},{"bufferView":175,"componentType":5126,"count":2,"type":"VEC4"},{"bufferView":176,"componentType":5126,"count":2,"type":"VEC4"},{"bufferView":177,"componentType":5126,"count":2,"type":"VEC4"},{"bufferView":178,"componentType":5126,"count":2,"type":"VEC4"},{"bufferView":179,"componentType":5126,"count":2,"type":"VEC4"},{"bufferView":180,"componentType":5126,"count":2,"type":"VEC4"},{"bufferView":181,"componentType":5126,"count":2,"type":"VEC4"},{"bufferView":182,"componentType":5126,"count":2,"type":"VEC3"},{"bufferView":183,"componentType":5126,"count":2,"type":"VEC3"},{"bufferView":184,"componentType":5126,"count":6,"type":"SCALAR","min":[0.0],"max":[0.35714285714285715]},{"bufferView":185,"componentType":5126,"count":6,"type":"VEC4"},{"bufferView":186,"componentType":5126,"count":6,"type":"VEC4"},{"bufferView":187,"componentType":5126,"count":6,"type":"VEC4"},{"bufferView":188,"componentType":5126,"count":6,"type":"VEC4"},{"bufferView":189,"componentType":5126,"count":6,"type":"VEC4"},{"bufferView":190,"componentType":5126,"count":6,"type":"VEC4"},{"bufferView":191,"componentType":5126,"count":6,"type":"VEC4"},{"bufferView":192,"componentType":5126,"count":6,"type":"VEC4"},{"bufferView":193,"componentType":5126,"count":6,"type":"VEC4"},{"bufferView":194,"componentType":5126,"count":6,"type":"VEC4"},{"bufferView":195,"componentType":5126,"count":6,"type":"VEC4"},{"bufferView":196,"componentType":5126,"count":6,"type":"VEC4"},{"bufferView":197,"componentType":5126,"count":6,"type":"VEC4"},{"bufferView":198,"componentType":5126,"count":6,"type":"VEC4"},{"bufferView":199,"componentType":5126,"count":6,"type":"VEC3"},{"bufferView":200,"componentType":5126,"count":7,"type":"SCALAR","min":[0.0],"max":[0.5]},{"bufferView":201,"componentType":5126,"count":7,"type":"VEC4"},{"bufferView":202,"componentType":5126,"count":7,"type":"VEC4"},{"bufferView":203,"componentType":5126,"count":7,"type":"VEC4"},{"bufferView":204,"componentType":5126,"count":7,"type":"VEC4"},{"bufferView":205,"componentType":5126,"count":7,"type":"VEC4"},{"bufferView":206,"componentType":5126,"count":7,"type":"VEC4"},{"bufferView":207,"componentType":5126,"count":7,"type":"VEC4"},{"bufferView":208,"componentType":5126,"count":7,"type":"VEC4"},{"bufferView":209,"componentType":5126,"count":7,"type":"VEC4"},{"bufferView":210,"componentType":5126,"count":7,"type":"VEC4"},{"bufferView":211,"componentType":5126,"count":7,"type":"VEC4"},{"bufferView":212,"componentType":5126,"count":7,"type":"VEC4"},{"bufferView":213,"componentType":5126,"count":7,"type":"VEC4"},{"bufferView":214,"componentType":5126,"count":7,"type":"VEC4"},{"bufferView":215,"componentType":5126,"count":7,"type":"VEC3"},{"bufferView":216,"componentType":5126,"count":3,"type":"SCALAR","min":[0.0],"max":[0.14285714285714285]},{"bufferView":217,"componentType":5126,"count":3,"type":"VEC4"},{"bufferView":218,"componentType":5126,"count":3,"type":"VEC4"},{"bufferView":219,"componentType":5126,"count":3,"type":"VEC4"},{"bufferView":220,"componentType":5126,"count":3,"type":"VEC4"},{"bufferView":221,"componentType":5126,"count":3,"type":"VEC4"},{"bufferView":222,"componentType":5126,"count":3,"type":"VEC4"},{"bufferView":223,"componentType":5126,"count":3,"type":"VEC4"},{"bufferView":224,"componentType":5126,"count":3,"type":"VEC4"},{"bufferView":225,"componentType":5126,"count":3,"type":"VEC4"},{"bufferView":226,"componentType":5126,"count":3,"type":"VEC4"},{"bufferView":227,"componentType":5126,"count":3,"type":"VEC4"},{"bufferView":228,"componentType":5126,"count":3,"type":"VEC4"},{"bufferView":229,"componentType":5126,"count":3,"type":"VEC4"},{"bufferView":230,"componentType":5126,"count":3,"type":"VEC4"},{"bufferView":231,"componentType":5126,"count":3,"type":"VEC3"},{"bufferView":232,"componentType":5126,"count":3,"type":"VEC3"},{"bufferView":233,"componentType":5126,"count":6,"type":"SCALAR","min":[0.0],"max":[0.35714285714285715]},{"bufferView":234,"componentType":5126,"count":6,"type":"VEC4"},{"bufferView":235,"componentType":5126,"count":6,"type":"VEC4"},{"bufferView":236,"componentType":5126,"count":6,"type":"VEC4"},{"bufferView":237,"componentType":5126,"count":6,"type":"VEC4"},{"bufferView":238,"componentType":5126,"count":6,"type":"VEC4"},{"bufferView":239,"componentType":5126,"count":6,"type":"VEC4"},{"bufferView":240,"componentType":5126,"count":6,"type":"VEC4"},{"bufferView":241,"componentType":5126,"count":6,"type":"VEC4"},{"bufferView":242,"componentType":5126,"count":6,"type":"VEC4"},{"bufferView":243,"componentType":5126,"count":6,"type":"VEC4"},{"bufferView":244,"componentType":5126,"count":6,"type":"VEC4"},{"bufferView":245,"componentType":5126,"count":6,"type":"VEC4"},{"bufferView":246,"componentType":5126,"count":6,"type":"VEC4"},{"bufferView":247,"componentType":5126,"count":6,"type":"VEC4"},{"bufferView":248,"componentType":5126,"count":6,"type":"VEC3"},{"bufferView":249,"componentType":5126,"count":6,"type":"VEC3"},{"bufferView":250,"componentType":5126,"count":9,"type":"SCALAR","min":[0.0],"max":[0.5714285714285714]},{"bufferView":251,"componentType":5126,"count":9,"type":"VEC4"},{"bufferView":252,"componentType":5126,"count":9,"type":"VEC4"},{"bufferView":253,"componentType":5126,"count":9,"type":"VEC4"},{"bufferView":254,"componentType":5126,"count":9,"type":"VEC4"},{"bufferView":255,"componentType":5126,"count":9,"type":"VEC4"},{"bufferView":256,"componentType":5126,"count":9,"type":"VEC4"},{"bufferView":257,"componentType":5126,"count":9,"type":"VEC4"},{"bufferView":258,"componentType":5126,"count":9,"type":"VEC4"},{"bufferView":259,"componentType":5126,"count":9,"type":"VEC4"},{"bufferView":260,"componentType":5126,"count":9,"type":"VEC4"},{"bufferView":261,"componentType":5126,"count":9,"type":"VEC4"},{"bufferView":262,"componentType":5126,"count":9,"type":"VEC4"},{"bufferView":263,"componentType":5126,"count":9,"type":"VEC4"},{"bufferView":264,"componentType":5126,"count":9,"type":"VEC4"},{"bufferView":265,"componentType":5126,"count":9,"type":"VEC4"},{"bufferView":266,"componentType":5126,"count":9,"type":"VEC3"},{"bufferView":267,"componentType":5126,"count":9,"type":"VEC3"}],"bufferViews":[{"buffer":0,"byteOffset":0,"byteLength":4056,"target":34962},{"buffer":0,"byteOffset":4056,"byteLength":4056,"target":34962},{"buffer":0,"byteOffset":8112,"byteLength":8064,"target":34963},{"buffer":0,"byteOffset":16176,"byteLength":1152,"target":34962},{"buffer":0,"byteOffset":17328,"byteLength":1152,"target":34962},{"buffer":0,"byteOffset":18480,"byteLength":1728,"target":34963},{"buffer":0,"byteOffset":20208,"byteLength":6408,"target":34962},{"buffer":0,"byteOffset":26616,"byteLength":6408,"target":34962},{"buffer":0,"byteOffset":33024,"byteLength":12768,"target":34963},{"buffer":0,"byteOffset":45792,"byteLength":1464,"target":34962},{"buffer":0,"byteOffset":47256,"byteLength":1464,"target":34962},{"buffer":0,"byteOffset":48720,"byteLength":2880,"target":34963},{"buffer":0,"byteOffset":51600,"byteLength":4800,"target":34962},{"buffer":0,"byteOffset":56400,"byteLength":4800,"target":34962},{"buffer":0,"byteOffset":61200,"byteLength":9504,"target":34963},{"buffer":0,"byteOffset":70704,"byteLength":4800,"target":34962},{"buffer":0,"byteOffset":75504,"byteLength":4800,"target":34962},{"buffer":0,"byteOffset":80304,"byteLength":9504,"target":34963},{"buffer":0,"byteOffset":89808,"byteLength":3072,"target":34962},{"buffer":0,"byteOffset":92880,"byteLength":3072,"target":34962},{"buffer":0,"byteOffset":95952,"byteLength":6048,"target":34963},{"buffer":0,"byteOffset":102000,"byteLength":3504,"target":34962},{"buffer":0,"byteOffset":105504,"byteLength":3504,"target":34962},{"buffer":0,"byteOffset":109008,"byteLength":6912,"target":34963},{"buffer":0,"byteOffset":115920,"byteLength":1008,"target":34962},{"buffer":0,"byteOffset":116928,"byteLength":1008,"target":34962},{"buffer":0,"byteOffset":117936,"byteLength":336,"target":34963},{"buffer":0,"byteOffset":118272,"byteLength":1008,"target":34962},{"buffer":0,"byteOffset":119280,"byteLength":1008,"target":34962},{"buffer":0,"byteOffset":120288,"byteLength":336,"target":34963},{"buffer":0,"byteOffset":120624,"byteLength":924,"target":34962},{"buffer":0,"byteOffset":121548,"byteLength":924,"target":34962},{"buffer":0,"byteOffset":122472,"byteLength":1440,"target":34963},{"buffer":0,"byteOffset":123912,"byteLength":1164,"target":34962},{"buffer":0,"byteOffset":125076,"byteLength":1164,"target":34962},{"buffer":0,"byteOffset":126240,"byteLength":1920,"target":34963},{"buffer":0,"byteOffset":128160,"byteLength":924,"target":34962},{"buffer":0,"byteOffset":129084,"byteLength":924,"target":34962},{"buffer":0,"byteOffset":130008,"byteLength":1440,"target":34963},{"buffer":0,"byteOffset":131448,"byteLength":1164,"target":34962},{"buffer":0,"byteOffset":132612,"byteLength":1164,"target":34962},{"buffer":0,"byteOffset":133776,"byteLength":1920,"target":34963},{"buffer":0,"byteOffset":135696,"byteLength":1020,"target":34962},{"buffer":0,"byteOffset":136716,"byteLength":1020,"target":34962},{"buffer":0,"byteOffset":137736,"byteLength":1620,"target":34963},{"buffer":0,"byteOffset":139356,"byteLength":1236,"target":34962},{"buffer":0,"byteOffset":140592,"byteLength":1236,"target":34962},{"buffer":0,"byteOffset":141828,"byteLength":1980,"target":34963},{"buffer":0,"byteOffset":143808,"byteLength":1020,"target":34962},{"buffer":0,"byteOffset":144828,"byteLength":1020,"target":34962},{"buffer":0,"byteOffset":145848,"byteLength":1620,"target":34963},{"buffer":0,"byteOffset":147468,"byteLength":1236,"target":34962},{"buffer":0,"byteOffset":148704,"byteLength":1236,"target":34962},{"buffer":0,"byteOffset":149940,"byteLength":1980,"target":34963},{"buffer":0,"byteOffset":151920,"byteLength":5856,"target":34962},{"buffer":0,"byteOffset":157776,"byteLength":5856,"target":34962},{"buffer":0,"byteOffset":163632,"byteLength":11664,"target":34963},{"buffer":0,"byteOffset":175296,"byteLength":5856,"target":34962},{"buffer":0,"byteOffset":181152,"byteLength":5856,"target":34962},{"buffer":0,"byteOffset":187008,"byteLength":11664,"target":34963},{"buffer":0,"byteOffset":198672,"byteLength":864,"target":34962},{"buffer":0,"byteOffset":199536,"byteLength":864,"target":34962},{"buffer":0,"byteOffset":200400,"byteLength":1680,"target":34963},{"buffer":0,"byteOffset":202080,"byteLength":864,"target":34962},{"buffer":0,"byteOffset":202944,"byteLength":864,"target":34962},{"buffer":0,"byteOffset":203808,"byteLength":1680,"target":34963},{"buffer":0,"byteOffset":205488,"byteLength":1740,"target":34962},{"buffer":0,"byteOffset":207228,"byteLength":1740,"target":34962},{"buffer":0,"byteOffset":208968,"byteLength":3264,"target":34963},{"buffer":0,"byteOffset":212232,"byteLength":68},{"buffer":0,"byteOffset":212300,"byteLength":272},{"buffer":0,"byteOffset":212572,"byteLength":272},{"buffer":0,"byteOffset":212844,"byteLength":272},{"buffer":0,"byteOffset":213116,"byteLength":272},{"buffer":0,"byteOffset":213388,"byteLength":272},{"buffer":0,"byteOffset":213660,"byteLength":272},{"buffer":0,"byteOffset":213932,"byteLength":272},{"buffer":0,"byteOffset":214204,"byteLength":272},{"buffer":0,"byteOffset":214476,"byteLength":272},{"buffer":0,"byteOffset":214748,"byteLength":272},{"buffer":0,"byteOffset":215020,"byteLength":272},{"buffer":0,"byteOffset":215292,"byteLength":272},{"buffer":0,"byteOffset":215564,"byteLength":272},{"buffer":0,"byteOffset":215836,"byteLength":272},{"buffer":0,"byteOffset":216108,"byteLength":204,"target":34962},{"buffer":0,"byteOffset":216312,"byteLength":36},{"buffer":0,"byteOffset":216348,"byteLength":144},{"buffer":0,"byteOffset":216492,"byteLength":144},{"buffer":0,"byteOffset":216636,"byteLength":144},{"buffer":0,"byteOffset":216780,"byteLength":144},{"buffer":0,"byteOffset":216924,"byteLength":144},{"buffer":0,"byteOffset":217068,"byteLength":144},{"buffer":0,"byteOffset":217212,"byteLength":144},{"buffer":0,"byteOffset":217356,"byteLength":144},{"buffer":0,"byteOffset":217500,"byteLength":144},{"buffer":0,"byteOffset":217644,"byteLength":144},{"buffer":0,"byteOffset":217788,"byteLength":144},{"buffer":0,"byteOffset":217932,"byteLength":144},{"buffer":0,"byteOffset":218076,"byteLength":144},{"buffer":0,"byteOffset":218220,"byteLength":144},{"buffer":0,"byteOffset":218364,"byteLength":108,"target":34962},{"buffer":0,"byteOffset":218472,"byteLength":36},{"buffer":0,"byteOffset":218508,"byteLength":144},{"buffer":0,"byteOffset":218652,"byteLength":144},{"buffer":0,"byteOffset":218796,"byteLength":144},{"buffer":0,"byteOffset":218940,"byteLength":144},{"buffer":0,"byteOffset":219084,"byteLength":144},{"buffer":0,"byteOffset":219228,"byteLength":144},{"buffer":0,"byteOffset":219372,"byteLength":144},{"buffer":0,"byteOffset":219516,"byteLength":144},{"buffer":0,"byteOffset":219660,"byteLength":144},{"buffer":0,"byteOffset":219804,"byteLength":144},{"buffer":0,"byteOffset":219948,"byteLength":144},{"buffer":0,"byteOffset":220092,"byteLength":144},{"buffer":0,"byteOffset":220236,"byteLength":144},{"buffer":0,"byteOffset":220380,"byteLength":144},{"buffer":0,"byteOffset":220524,"byteLength":108,"target":34962},{"buffer":0,"byteOffset":220632,"byteLength":16},{"buffer":0,"byteOffset":220648,"byteLength":64},{"buffer":0,"byteOffset":220712,"byteLength":64},{"buffer":0,"byteOffset":220776,"byteLength":64},{"buffer":0,"byteOffset":220840,"byteLength":64},{"buffer":0,"byteOffset":220904,"byteLength":64},{"buffer":0,"byteOffset":220968,"byteLength":64},{"buffer":0,"byteOffset":221032,"byteLength":64},{"buffer":0,"byteOffset":221096,"byteLength":64},{"buffer":0,"byteOffset":221160,"byteLength":64},{"buffer":0,"byteOffset":221224,"byteLength":64},{"buffer":0,"byteOffset":221288,"byteLength":64},{"buffer":0,"byteOffset":221352,"byteLength":64},{"buffer":0,"byteOffset":221416,"byteLength":64},{"buffer":0,"byteOffset":221480,"byteLength":64},{"buffer":0,"byteOffset":221544,"byteLength":48,"target":34962},{"buffer":0,"byteOffset":221592,"byteLength":48,"target":34962},{"buffer":0,"byteOffset":221640,"byteLength":20},{"buffer":0,"byteOffset":221660,"byteLength":80},{"buffer":0,"byteOffset":221740,"byteLength":80},{"buffer":0,"byteOffset":221820,"byteLength":80},{"buffer":0,"byteOffset":221900,"byteLength":80},{"buffer":0,"byteOffset":221980,"byteLength":80},{"buffer":0,"byteOffset":222060,"byteLength":80},{"buffer":0,"byteOffset":222140,"byteLength":80},{"buffer":0,"byteOffset":222220,"byteLength":80},{"buffer":0,"byteOffset":222300,"byteLength":80},{"buffer":0,"byteOffset":222380,"byteLength":80},{"buffer":0,"byteOffset":222460,"byteLength":80},{"buffer":0,"byteOffset":222540,"byteLength":80},{"buffer":0,"byteOffset":222620,"byteLength":80},{"buffer":0,"byteOffset":222700,"byteLength":80},{"buffer":0,"byteOffset":222780,"byteLength":60,"target":34962},{"buffer":0,"byteOffset":222840,"byteLength":16},{"buffer":0,"byteOffset":222856,"byteLength":64},{"buffer":0,"byteOffset":222920,"byteLength":64},{"buffer":0,"byteOffset":222984,"byteLength":64},{"buffer":0,"byteOffset":223048,"byteLength":64},{"buffer":0,"byteOffset":223112,"byteLength":64},{"buffer":0,"byteOffset":223176,"byteLength":64},{"buffer":0,"byteOffset":223240,"byteLength":64},{"buffer":0,"byteOffset":223304,"byteLength":64},{"buffer":0,"byteOffset":223368,"byteLength":64},{"buffer":0,"byteOffset":223432,"byteLength":64},{"buffer":0,"byteOffset":223496,"byteLength":64},{"buffer":0,"byteOffset":223560,"byteLength":64},{"buffer":0,"byteOffset":223624,"byteLength":64},{"buffer":0,"byteOffset":223688,"byteLength":64},{"buffer":0,"byteOffset":223752,"byteLength":48,"target":34962},{"buffer":0,"byteOffset":223800,"byteLength":48,"target":34962},{"buffer":0,"byteOffset":223848,"byteLength":8},{"buffer":0,"byteOffset":223856,"byteLength":32},{"buffer":0,"byteOffset":223888,"byteLength":32},{"buffer":0,"byteOffset":223920,"byteLength":32},{"buffer":0,"byteOffset":223952,"byteLength":32},{"buffer":0,"byteOffset":223984,"byteLength":32},{"buffer":0,"byteOffset":224016,"byteLength":32},{"buffer":0,"byteOffset":224048,"byteLength":32},{"buffer":0,"byteOffset":224080,"byteLength":32},{"buffer":0,"byteOffset":224112,"byteLength":32},{"buffer":0,"byteOffset":224144,"byteLength":32},{"buffer":0,"byteOffset":224176,"byteLength":32},{"buffer":0,"byteOffset":224208,"byteLength":32},{"buffer":0,"byteOffset":224240,"byteLength":32},{"buffer":0,"byteOffset":224272,"byteLength":32},{"buffer":0,"byteOffset":224304,"byteLength":24,"target":34962},{"buffer":0,"byteOffset":224328,"byteLength":24,"target":34962},{"buffer":0,"byteOffset":224352,"byteLength":24},{"buffer":0,"byteOffset":224376,"byteLength":96},{"buffer":0,"byteOffset":224472,"byteLength":96},{"buffer":0,"byteOffset":224568,"byteLength":96},{"buffer":0,"byteOffset":224664,"byteLength":96},{"buffer":0,"byteOffset":224760,"byteLength":96},{"buffer":0,"byteOffset":224856,"byteLength":96},{"buffer":0,"byteOffset":224952,"byteLength":96},{"buffer":0,"byteOffset":225048,"byteLength":96},{"buffer":0,"byteOffset":225144,"byteLength":96},{"buffer":0,"byteOffset":225240,"byteLength":96},{"buffer":0,"byteOffset":225336,"byteLength":96},{"buffer":0,"byteOffset":225432,"byteLength":96},{"buffer":0,"byteOffset":225528,"byteLength":96},{"buffer":0,"byteOffset":225624,"byteLength":96},{"buffer":0,"byteOffset":225720,"byteLength":72,"target":34962},{"buffer":0,"byteOffset":225792,"byteLength":28},{"buffer":0,"byteOffset":225820,"byteLength":112},{"buffer":0,"byteOffset":225932,"byteLength":112},{"buffer":0,"byteOffset":226044,"byteLength":112},{"buffer":0,"byteOffset":226156,"byteLength":112},{"buffer":0,"byteOffset":226268,"byteLength":112},{"buffer":0,"byteOffset":226380,"byteLength":112},{"buffer":0,"byteOffset":226492,"byteLength":112},{"buffer":0,"byteOffset":226604,"byteLength":112},{"buffer":0,"byteOffset":226716,"byteLength":112},{"buffer":0,"byteOffset":226828,"byteLength":112},{"buffer":0,"byteOffset":226940,"byteLength":112},{"buffer":0,"byteOffset":227052,"byteLength":112},{"buffer":0,"byteOffset":227164,"byteLength":112},{"buffer":0,"byteOffset":227276,"byteLength":112},{"buffer":0,"byteOffset":227388,"byteLength":84,"target":34962},{"buffer":0,"byteOffset":227472,"byteLength":12},{"buffer":0,"byteOffset":227484,"byteLength":48},{"buffer":0,"byteOffset":227532,"byteLength":48},{"buffer":0,"byteOffset":227580,"byteLength":48},{"buffer":0,"byteOffset":227628,"byteLength":48},{"buffer":0,"byteOffset":227676,"byteLength":48},{"buffer":0,"byteOffset":227724,"byteLength":48},{"buffer":0,"byteOffset":227772,"byteLength":48},{"buffer":0,"byteOffset":227820,"byteLength":48},{"buffer":0,"byteOffset":227868,"byteLength":48},{"buffer":0,"byteOffset":227916,"byteLength":48},{"buffer":0,"byteOffset":227964,"byteLength":48},{"buffer":0,"byteOffset":228012,"byteLength":48},{"buffer":0,"byteOffset":228060,"byteLength":48},{"buffer":0,"byteOffset":228108,"byteLength":48},{"buffer":0,"byteOffset":228156,"byteLength":36,"target":34962},{"buffer":0,"byteOffset":228192,"byteLength":36,"target":34962},{"buffer":0,"byteOffset":228228,"byteLength":24},{"buffer":0,"byteOffset":228252,"byteLength":96},{"buffer":0,"byteOffset":228348,"byteLength":96},{"buffer":0,"byteOffset":228444,"byteLength":96},{"buffer":0,"byteOffset":228540,"byteLength":96},{"buffer":0,"byteOffset":228636,"byteLength":96},{"buffer":0,"byteOffset":228732,"byteLength":96},{"buffer":0,"byteOffset":228828,"byteLength":96},{"buffer":0,"byteOffset":228924,"byteLength":96},{"buffer":0,"byteOffset":229020,"byteLength":96},{"buffer":0,"byteOffset":229116,"byteLength":96},{"buffer":0,"byteOffset":229212,"byteLength":96},{"buffer":0,"byteOffset":229308,"byteLength":96},{"buffer":0,"byteOffset":229404,"byteLength":96},{"buffer":0,"byteOffset":229500,"byteLength":96},{"buffer":0,"byteOffset":229596,"byteLength":72,"target":34962},{"buffer":0,"byteOffset":229668,"byteLength":72,"target":34962},{"buffer":0,"byteOffset":229740,"byteLength":36},{"buffer":0,"byteOffset":229776,"byteLength":144},{"buffer":0,"byteOffset":229920,"byteLength":144},{"buffer":0,"byteOffset":230064,"byteLength":144},{"buffer":0,"byteOffset":230208,"byteLength":144},{"buffer":0,"byteOffset":230352,"byteLength":144},{"buffer":0,"byteOffset":230496,"byteLength":144},{"buffer":0,"byteOffset":230640,"byteLength":144},{"buffer":0,"byteOffset":230784,"byteLength":144},{"buffer":0,"byteOffset":230928,"byteLength":144},{"buffer":0,"byteOffset":231072,"byteLength":144},{"buffer":0,"byteOffset":231216,"byteLength":144},{"buffer":0,"byteOffset":231360,"byteLength":144},{"buffer":0,"byteOffset":231504,"byteLength":144},{"buffer":0,"byteOffset":231648,"byteLength":144},{"buffer":0,"byteOffset":231792,"byteLength":144},{"buffer":0,"byteOffset":231936,"byteLength":108,"target":34962},{"buffer":0,"byteOffset":232044,"byteLength":108,"target":34962}],"buffers":[{"byteLength":232152,"uri":"data:application/octet-stream;base64,"}],"animations":[{"name":"idle","channels":[{"sampler":0,"target":{"node":2,"path":"rotation"}},{"sampler":1,"target":{"node":3,"path":"rotation"}},{"sampler":2,"target":{"node":4,"path":"rotation"}},{"sampler":3,"target":{"node":5,"path":"rotation"}},{"sampler":4,"target":{"node":6,"path":"rotation"}},{"sampler":5,"target":{"node":7,"path":"rotation"}},{"sampler":6,"target":{"node":8,"path":"rotation"}},{"sampler":7,"target":{"node":9,"path":"rotation"}},{"sampler":8,"target":{"node":10,"path":"rotation"}},{"sampler":9,"target":{"node":11,"path":"rotation"}},{"sampler":10,"target":{"node":12,"path":"rotation"}},{"sampler":11,"target":{"node":13,"path":"rotation"}},{"sampler":12,"target":{"node":14,"path":"rotation"}},{"sampler":13,"target":{"node":15,"path":"rotation"}},{"sampler":14,"target":{"node":1,"path":"translation"}}],"samplers":[{"input":69,"interpolation":"LINEAR","output":70},{"input":69,"interpolation":"LINEAR","output":71},{"input":69,"interpolation":"LINEAR","output":72},{"input":69,"interpolation":"LINEAR","output":73},{"input":69,"interpolation":"LINEAR","output":74},{"input":69,"interpolation":"LINEAR","output":75},{"input":69,"interpolation":"LINEAR","output":76},{"input":69,"interpolation":"LINEAR","output":77},{"input":69,"interpolation":"LINEAR","output":78},{"input":69,"interpolation":"LINEAR","output":79},{"input":69,"interpolation":"LINEAR","output":80},{"input":69,"interpolation":"LINEAR","output":81},{"input":69,"interpolation":"LINEAR","output":82},{"input":69,"interpolation":"LINEAR","output":83},{"input":69,"interpolation":"LINEAR","output":84}]},{"name":"walk","channels":[{"sampler":0,"target":{"node":2,"path":"rotation"}},{"sampler":1,"target":{"node":3,"path":"rotation"}},{"sampler":2,"target":{"node":4,"path":"rotation"}},{"sampler":3,"target":{"node":5,"path":"rotation"}},{"sampler":4,"target":{"node":6,"path":"rotation"}},{"sampler":5,"target":{"node":7,"path":"rotation"}},{"sampler":6,"target":{"node":8,"path":"rotation"}},{"sampler":7,"target":{"node":9,"path":"rotation"}},{"sampler":8,"target":{"node":10,"path":"rotation"}},{"sampler":9,"target":{"node":11,"path":"rotation"}},{"sampler":10,"target":{"node":12,"path":"rotation"}},{"sampler":11,"target":{"node":13,"path":"rotation"}},{"sampler":12,"target":{"node":14,"path":"rotation"}},{"sampler":13,"target":{"node":15,"path":"rotation"}},{"sampler":14,"target":{"node":1,"path":"translation"}}],"samplers":[{"input":85,"interpolation":"LINEAR","output":86},{"input":85,"interpolation":"LINEAR","output":87},{"input":85,"interpolation":"LINEAR","output":88},{"input":85,"interpolation":"LINEAR","output":89},{"input":85,"interpolation":"LINEAR","output":90},{"input":85,"interpolation":"LINEAR","output":91},{"input":85,"interpolation":"LINEAR","output":92},{"input":85,"interpolation":"LINEAR","output":93},{"input":85,"interpolation":"LINEAR","output":94},{"input":85,"interpolation":"LINEAR","output":95},{"input":85,"interpolation":"LINEAR","output":96},{"input":85,"interpolation":"LINEAR","output":97},{"input":85,"interpolation":"LINEAR","output":98},{"input":85,"interpolation":"LINEAR","output":99},{"input":85,"interpolation":"LINEAR","output":100}]},{"name":"run","channels":[{"sampler":0,"target":{"node":2,"path":"rotation"}},{"sampler":1,"target":{"node":3,"path":"rotation"}},{"sampler":2,"target":{"node":4,"path":"rotation"}},{"sampler":3,"target":{"node":5,"path":"rotation"}},{"sampler":4,"target":{"node":6,"path":"rotation"}},{"sampler":5,"target":{"node":7,"path":"rotation"}},{"sampler":6,"target":{"node":8,"path":"rotation"}},{"sampler":7,"target":{"node":9,"path":"rotation"}},{"sampler":8,"target":{"node":10,"path":"rotation"}},{"sampler":9,"target":{"node":11,"path":"rotation"}},{"sampler":10,"target":{"node":12,"path":"rotation"}},{"sampler":11,"target":{"node":13,"path":"rotation"}},{"sampler":12,"target":{"node":14,"path":"rotation"}},{"sampler":13,"target":{"node":15,"path":"rotation"}},{"sampler":14,"target":{"node":1,"path":"translation"}}],"samplers":[{"input":101,"interpolation":"LINEAR","output":102},{"input":101,"interpolation":"LINEAR","output":103},{"input":101,"interpolation":"LINEAR","output":104},{"input":101,"interpolation":"LINEAR","output":105},{"input":101,"interpolation":"LINEAR","output":106},{"input":101,"interpolation":"LINEAR","output":107},{"input":101,"interpolation":"LINEAR","output":108},{"input":101,"interpolation":"LINEAR","output":109},{"input":101,"interpolation":"LINEAR","output":110},{"input":101,"interpolation":"LINEAR","output":111},{"input":101,"interpolation":"LINEAR","output":112},{"input":101,"interpolation":"LINEAR","output":113},{"input":101,"interpolation":"LINEAR","output":114},{"input":101,"interpolation":"LINEAR","output":115},{"input":101,"interpolation":"LINEAR","output":116}]},{"name":"jump","channels":[{"sampler":0,"target":{"node":2,"path":"rotation"}},{"sampler":1,"target":{"node":3,"path":"rotation"}},{"sampler":2,"target":{"node":4,"path":"rotation"}},{"sampler":3,"target":{"node":5,"path":"rotation"}},{"sampler":4,"target":{"node":6,"path":"rotation"}},{"sampler":5,"target":{"node":7,"path":"rotation"}},{"sampler":6,"target":{"node":8,"path":"rotation"}},{"sampler":7,"target":{"node":9,"path":"rotation"}},{"sampler":8,"target":{"node":10,"path":"rotation"}},{"sampler":9,"target":{"node":11,"path":"rotation"}},{"sampler":10,"target":{"node":12,"path":"rotation"}},{"sampler":11,"target":{"node":13,"path":"rotation"}},{"sampler":12,"target":{"node":14,"path":"rotation"}},{"sampler":13,"target":{"node":15,"path":"rotation"}},{"sampler":14,"target":{"node":2,"path":"scale"}},{"sampler":15,"target":{"node":1,"path":"translation"}}],"samplers":[{"input":117,"interpolation":"LINEAR","output":118},{"input":117,"interpolation":"LINEAR","output":119},{"input":117,"interpolation":"LINEAR","output":120},{"input":117,"interpolation":"LINEAR","output":121},{"input":117,"interpolation":"LINEAR","output":122},{"input":117,"interpolation":"LINEAR","output":123},{"input":117,"interpolation":"LINEAR","output":124},{"input":117,"interpolation":"LINEAR","output":125},{"input":117,"interpolation":"LINEAR","output":126},{"input":117,"interpolation":"LINEAR","output":127},{"input":117,"interpolation":"LINEAR","output":128},{"input":117,"interpolation":"LINEAR","output":129},{"input":117,"interpolation":"LINEAR","output":130},{"input":117,"interpolation":"LINEAR","output":131},{"input":117,"interpolation":"LINEAR","output":132},{"input":117,"interpolation":"LINEAR","output":133}]},{"name":"fall","channels":[{"sampler":0,"target":{"node":2,"path":"rotation"}},{"sampler":1,"target":{"node":3,"path":"rotation"}},{"sampler":2,"target":{"node":4,"path":"rotation"}},{"sampler":3,"target":{"node":5,"path":"rotation"}},{"sampler":4,"target":{"node":6,"path":"rotation"}},{"sampler":5,"target":{"node":7,"path":"rotation"}},{"sampler":6,"target":{"node":8,"path":"rotation"}},{"sampler":7,"target":{"node":9,"path":"rotation"}},{"sampler":8,"target":{"node":10,"path":"rotation"}},{"sampler":9,"target":{"node":11,"path":"rotation"}},{"sampler":10,"target":{"node":12,"path":"rotation"}},{"sampler":11,"target":{"node":13,"path":"rotation"}},{"sampler":12,"target":{"node":14,"path":"rotation"}},{"sampler":13,"target":{"node":15,"path":"rotation"}},{"sampler":14,"target":{"node":1,"path":"translation"}}],"samplers":[{"input":134,"interpolation":"LINEAR","output":135},{"input":134,"interpolation":"LINEAR","output":136},{"input":134,"interpolation":"LINEAR","output":137},{"input":134,"interpolation":"LINEAR","output":138},{"input":134,"interpolation":"LINEAR","output":139},{"input":134,"interpolation":"LINEAR","output":140},{"input":134,"interpolation":"LINEAR","output":141},{"input":134,"interpolation":"LINEAR","output":142},{"input":134,"interpolation":"LINEAR","output":143},{"input":134,"interpolation":"LINEAR","output":144},{"input":134,"interpolation":"LINEAR","output":145},{"input":134,"interpolation":"LINEAR","output":146},{"input":134,"interpolation":"LINEAR","output":147},{"input":134,"interpolation":"LINEAR","output":148},{"input":134,"interpolation":"LINEAR","output":149}]},{"name":"land","channels":[{"sampler":0,"target":{"node":2,"path":"rotation"}},{"sampler":1,"target":{"node":3,"path":"rotation"}},{"sampler":2,"target":{"node":4,"path":"rotation"}},{"sampler":3,"target":{"node":5,"path":"rotation"}},{"sampler":4,"target":{"node":6,"path":"rotation"}},{"sampler":5,"target":{"node":7,"path":"rotation"}},{"sampler":6,"target":{"node":8,"path":"rotation"}},{"sampler":7,"target":{"node":9,"path":"rotation"}},{"sampler":8,"target":{"node":10,"path":"rotation"}},{"sampler":9,"target":{"node":11,"path":"rotation"}},{"sampler":10,"target":{"node":12,"path":"rotation"}},{"sampler":11,"target":{"node":13,"path":"rotation"}},{"sampler":12,"target":{"node":14,"path":"rotation"}},{"sampler":13,"target":{"node":15,"path":"rotation"}},{"sampler":14,"target":{"node":2,"path":"scale"}},{"sampler":15,"target":{"node":1,"path":"translation"}}],"samplers":[{"input":150,"interpolation":"LINEAR","output":151},{"input":150,"interpolation":"LINEAR","output":152},{"input":150,"interpolation":"LINEAR","output":153},{"input":150,"interpolation":"LINEAR","output":154},{"input":150,"interpolation":"LINEAR","output":155},{"input":150,"interpolation":"LINEAR","output":156},{"input":150,"interpolation":"LINEAR","output":157},{"input":150,"interpolation":"LINEAR","output":158},{"input":150,"interpolation":"LINEAR","output":159},{"input":150,"interpolation":"LINEAR","output":160},{"input":150,"interpolation":"LINEAR","output":161},{"input":150,"interpolation":"LINEAR","output":162},{"input":150,"interpolation":"LINEAR","output":163},{"input":150,"interpolation":"LINEAR","output":164},{"input":150,"interpolation":"LINEAR","output":165},{"input":150,"interpolation":"LINEAR","output":166}]},{"name":"crouch","channels":[{"sampler":0,"target":{"node":2,"path":"rotation"}},{"sampler":1,"target":{"node":3,"path":"rotation"}},{"sampler":2,"target":{"node":4,"path":"rotation"}},{"sampler":3,"target":{"node":5,"path":"rotation"}},{"sampler":4,"target":{"node":6,"path":"rotation"}},{"sampler":5,"target":{"node":7,"path":"rotation"}},{"sampler":6,"target":{"node":8,"path":"rotation"}},{"sampler":7,"target":{"node":9,"path":"rotation"}},{"sampler":8,"target":{"node":10,"path":"rotation"}},{"sampler":9,"target":{"node":11,"path":"rotation"}},{"sampler":10,"target":{"node":12,"path":"rotation"}},{"sampler":11,"target":{"node":13,"path":"rotation"}},{"sampler":12,"target":{"node":14,"path":"rotation"}},{"sampler":13,"target":{"node":15,"path":"rotation"}},{"sampler":14,"target":{"node":2,"path":"scale"}},{"sampler":15,"target":{"node":1,"path":"translation"}}],"samplers":[{"input":167,"interpolation":"LINEAR","output":168},{"input":167,"interpolation":"LINEAR","output":169},{"input":167,"interpolation":"LINEAR","output":170},{"input":167,"interpolation":"LINEAR","output":171},{"input":167,"interpolation":"LINEAR","output":172},{"input":167,"interpolation":"LINEAR","output":173},{"input":167,"interpolation":"LINEAR","output":174},{"input":167,"interpolation":"LINEAR","output":175},{"input":167,"interpolation":"LINEAR","output":176},{"input":167,"interpolation":"LINEAR","output":177},{"input":167,"interpolation":"LINEAR","output":178},{"input":167,"interpolation":"LINEAR","output":179},{"input":167,"interpolation":"LINEAR","output":180},{"input":167,"interpolation":"LINEAR","output":181},{"input":167,"interpolation":"LINEAR","output":182},{"input":167,"interpolation":"LINEAR","output":183}]},{"name":"peck","channels":[{"sampler":0,"target":{"node":2,"path":"rotation"}},{"sampler":1,"target":{"node":3,"path":"rotation"}},{"sampler":2,"target":{"node":4,"path":"rotation"}},{"sampler":3,"target":{"node":5,"path":"rotation"}},{"sampler":4,"target":{"node":6,"path":"rotation"}},{"sampler":5,"target":{"node":7,"path":"rotation"}},{"sampler":6,"target":{"node":8,"path":"rotation"}},{"sampler":7,"target":{"node":9,"path":"rotation"}},{"sampler":8,"target":{"node":10,"path":"rotation"}},{"sampler":9,"target":{"node":11,"path":"rotation"}},{"sampler":10,"target":{"node":12,"path":"rotation"}},{"sampler":11,"target":{"node":13,"path":"rotation"}},{"sampler":12,"target":{"node":14,"path":"rotation"}},{"sampler":13,"target":{"node":15,"path":"rotation"}},{"sampler":14,"target":{"node":1,"path":"translation"}}],"samplers":[{"input":184,"interpolation":"LINEAR","output":185},{"input":184,"interpolation":"LINEAR","output":186},{"input":184,"interpolation":"LINEAR","output":187},{"input":184,"interpolation":"LINEAR","output":188},{"input":184,"interpolation":"LINEAR","output":189},{"input":184,"interpolation":"LINEAR","output":190},{"input":184,"interpolation":"LINEAR","output":191},{"input":184,"interpolation":"LINEAR","output":192},{"input":184,"interpolation":"LINEAR","output":193},{"input":184,"interpolation":"LINEAR","output":194},{"input":184,"interpolation":"LINEAR","output":195},{"input":184,"interpolation":"LINEAR","output":196},{"input":184,"interpolation":"LINEAR","output":197},{"input":184,"interpolation":"LINEAR","output":198},{"input":184,"interpolation":"LINEAR","output":199}]},{"name":"crow","channels":[{"sampler":0,"target":{"node":2,"path":"rotation"}},{"sampler":1,"target":{"node":3,"path":"rotation"}},{"sampler":2,"target":{"node":4,"path":"rotation"}},{"sampler":3,"target":{"node":5,"path":"rotation"}},{"sampler":4,"target":{"node":6,"path":"rotation"}},{"sampler":5,"target":{"node":7,"path":"rotation"}},{"sampler":6,"target":{"node":8,"path":"rotation"}},{"sampler":7,"target":{"node":9,"path":"rotation"}},{"sampler":8,"target":{"node":10,"path":"rotation"}},{"sampler":9,"target":{"node":11,"path":"rotation"}},{"sampler":10,"target":{"node":12,"path":"rotation"}},{"sampler":11,"target":{"node":13,"path":"rotation"}},{"sampler":12,"target":{"node":14,"path":"rotation"}},{"sampler":13,"target":{"node":15,"path":"rotation"}},{"sampler":14,"target":{"node":1,"path":"translation"}}],"samplers":[{"input":200,"interpolation":"LINEAR","output":201},{"input":200,"interpolation":"LINEAR","output":202},{"input":200,"interpolation":"LINEAR","output":203},{"input":200,"interpolation":"LINEAR","output":204},{"input":200,"interpolation":"LINEAR","output":205},{"input":200,"interpolation":"LINEAR","output":206},{"input":200,"interpolation":"LINEAR","output":207},{"input":200,"interpolation":"LINEAR","output":208},{"input":200,"interpolation":"LINEAR","output":209},{"input":200,"interpolation":"LINEAR","output":210},{"input":200,"interpolation":"LINEAR","output":211},{"input":200,"interpolation":"LINEAR","output":212},{"input":200,"interpolation":"LINEAR","output":213},{"input":200,"interpolation":"LINEAR","output":214},{"input":200,"interpolation":"LINEAR","output":215}]},{"name":"hurt","channels":[{"sampler":0,"target":{"node":2,"path":"rotation"}},{"sampler":1,"target":{"node":3,"path":"rotation"}},{"sampler":2,"target":{"node":4,"path":"rotation"}},{"sampler":3,"target":{"node":5,"path":"rotation"}},{"sampler":4,"target":{"node":6,"path":"rotation"}},{"sampler":5,"target":{"node":7,"path":"rotation"}},{"sampler":6,"target":{"node":8,"path":"rotation"}},{"sampler":7,"target":{"node":9,"path":"rotation"}},{"sampler":8,"target":{"node":10,"path":"rotation"}},{"sampler":9,"target":{"node":11,"path":"rotation"}},{"sampler":10,"target":{"node":12,"path":"rotation"}},{"sampler":11,"target":{"node":13,"path":"rotation"}},{"sampler":12,"target":{"node":14,"path":"rotation"}},{"sampler":13,"target":{"node":15,"path":"rotation"}},{"sampler":14,"target":{"node":2,"path":"scale"}},{"sampler":15,"target":{"node":1,"path":"translation"}}],"samplers":[{"input":216,"interpolation":"LINEAR","output":217},{"input":216,"interpolation":"LINEAR","output":218},{"input":216,"interpolation":"LINEAR","output":219},{"input":216,"interpolation":"LINEAR","output":220},{"input":216,"interpolation":"LINEAR","output":221},{"input":216,"interpolation":"LINEAR","output":222},{"input":216,"interpolation":"LINEAR","output":223},{"input":216,"interpolation":"LINEAR","output":224},{"input":216,"interpolation":"LINEAR","output":225},{"input":216,"interpolation":"LINEAR","output":226},{"input":216,"interpolation":"LINEAR","output":227},{"input":216,"interpolation":"LINEAR","output":228},{"input":216,"interpolation":"LINEAR","output":229},{"input":216,"interpolation":"LINEAR","output":230},{"input":216,"interpolation":"LINEAR","output":231},{"input":216,"interpolation":"LINEAR","output":232}]},{"name":"squeak","channels":[{"sampler":0,"target":{"node":2,"path":"rotation"}},{"sampler":1,"target":{"node":3,"path":"rotation"}},{"sampler":2,"target":{"node":4,"path":"rotation"}},{"sampler":3,"target":{"node":5,"path":"rotation"}},{"sampler":4,"target":{"node":6,"path":"rotation"}},{"sampler":5,"target":{"node":7,"path":"rotation"}},{"sampler":6,"target":{"node":8,"path":"rotation"}},{"sampler":7,"target":{"node":9,"path":"rotation"}},{"sampler":8,"target":{"node":10,"path":"rotation"}},{"sampler":9,"target":{"node":11,"path":"rotation"}},{"sampler":10,"target":{"node":12,"path":"rotation"}},{"sampler":11,"target":{"node":13,"path":"rotation"}},{"sampler":12,"target":{"node":14,"path":"rotation"}},{"sampler":13,"target":{"node":15,"path":"rotation"}},{"sampler":14,"target":{"node":2,"path":"scale"}},{"sampler":15,"target":{"node":1,"path":"translation"}}],"samplers":[{"input":233,"interpolation":"LINEAR","output":234},{"input":233,"interpolation":"LINEAR","output":235},{"input":233,"interpolation":"LINEAR","output":236},{"input":233,"interpolation":"LINEAR","output":237},{"input":233,"interpolation":"LINEAR","output":238},{"input":233,"interpolation":"LINEAR","output":239},{"input":233,"interpolation":"LINEAR","output":240},{"input":233,"interpolation":"LINEAR","output":241},{"input":233,"interpolation":"LINEAR","output":242},{"input":233,"interpolation":"LINEAR","output":243},{"input":233,"interpolation":"LINEAR","output":244},{"input":233,"interpolation":"LINEAR","output":245},{"input":233,"interpolation":"LINEAR","output":246},{"input":233,"interpolation":"LINEAR","output":247},{"input":233,"interpolation":"LINEAR","output":248},{"input":233,"interpolation":"LINEAR","output":249}]},{"name":"tumble","channels":[{"sampler":0,"target":{"node":1,"path":"rotation"}},{"sampler":1,"target":{"node":2,"path":"rotation"}},{"sampler":2,"target":{"node":3,"path":"rotation"}},{"sampler":3,"target":{"node":4,"path":"rotation"}},{"sampler":4,"target":{"node":5,"path":"rotation"}},{"sampler":5,"target":{"node":6,"path":"rotation"}},{"sampler":6,"target":{"node":7,"path":"rotation"}},{"sampler":7,"target":{"node":8,"path":"rotation"}},{"sampler":8,"target":{"node":9,"path":"rotation"}},{"sampler":9,"target":{"node":10,"path":"rotation"}},{"sampler":10,"target":{"node":11,"path":"rotation"}},{"sampler":11,"target":{"node":12,"path":"rotation"}},{"sampler":12,"target":{"node":13,"path":"rotation"}},{"sampler":13,"target":{"node":14,"path":"rotation"}},{"sampler":14,"target":{"node":15,"path":"rotation"}},{"sampler":15,"target":{"node":2,"path":"scale"}},{"sampler":16,"target":{"node":1,"path":"translation"}}],"samplers":[{"input":250,"interpolation":"LINEAR","output":251},{"input":250,"interpolation":"LINEAR","output":252},{"input":250,"interpolation":"LINEAR","output":253},{"input":250,"interpolation":"LINEAR","output":254},{"input":250,"interpolation":"LINEAR","output":255},{"input":250,"interpolation":"LINEAR","output":256},{"input":250,"interpolation":"LINEAR","output":257},{"input":250,"interpolation":"LINEAR","output":258},{"input":250,"interpolation":"LINEAR","output":259},{"input":250,"interpolation":"LINEAR","output":260},{"input":250,"interpolation":"LINEAR","output":261},{"input":250,"interpolation":"LINEAR","output":262},{"input":250,"interpolation":"LINEAR","output":263},{"input":250,"interpolation":"LINEAR","output":264},{"input":250,"interpolation":"LINEAR","output":265},{"input":250,"interpolation":"LINEAR","output":266},{"input":250,"interpolation":"LINEAR","output":267}]}]}